<svg width="99" height="99" viewBox="0 0 99 99" fill="none" xmlns="http://www.w3.org/2000/svg">
<g filter="url(#filter0_f_15_780)">
<path fill-rule="evenodd" clip-rule="evenodd" d="M43.9791 20.7854L25.6525 31.1719C25.9484 31.5542 26.1978 31.9735 26.3924 32.4216L44.8228 21.9042C44.4989 21.5668 44.2151 21.1914 43.9791 20.7854ZM45.8508 22.7581L23.2317 61.5885C23.7026 61.7839 24.1426 62.0377 24.5426 62.3406L47.5217 23.5157C46.9208 23.349 46.3584 23.0911 45.8508 22.7581ZM50.7364 23.5157L73.7156 62.3405C74.1155 62.0376 74.5555 61.7839 75.0264 61.5884L52.4073 22.7581C51.8997 23.0911 51.3374 23.349 50.7364 23.5157ZM53.4353 21.9042L72.4707 32.7668C72.6368 32.3051 72.8599 31.8701 73.1314 31.4699L54.279 20.7854C54.043 21.1914 53.7592 21.5668 53.4353 21.9042ZM78.1425 40.5995C78.1166 40.5998 78.0906 40.6 78.0645 40.6C77.5802 40.6 77.1094 40.5427 76.6587 40.4345V61.1696C76.8766 61.1456 77.0982 61.1333 77.3226 61.1333C77.6008 61.1333 77.8745 61.1523 78.1425 61.1889V40.5995ZM72.6172 70.5765C72.3162 70.1901 72.0628 69.7657 71.8657 69.3118L53.8583 79.5878C54.1567 79.976 54.4072 80.402 54.6013 80.8573L72.6172 70.5765ZM43.6568 80.8573C43.8509 80.402 44.1014 79.9759 44.3998 79.5877L26.3924 69.3117C26.1953 69.7657 25.9419 70.1901 25.6409 70.5764L43.6568 80.8573ZM20.1156 61.1889C20.3836 61.1523 20.6573 61.1333 20.9355 61.1333C21.1599 61.1333 21.3815 61.1457 21.5995 61.1696V40.5637C21.3815 40.5877 21.1599 40.6 20.9355 40.6C20.6573 40.6 20.3836 40.5811 20.1156 40.5445V61.1889ZM26.825 67.7333H71.433C71.4027 67.4931 71.3871 67.2483 71.3871 67C71.3871 66.7516 71.4027 66.5069 71.433 66.2667H26.825C26.8554 66.5069 26.871 66.7516 26.871 67C26.871 67.2483 26.8554 67.4931 26.825 67.7333Z" fill="url(#paint0_linear_15_780)"/>
<path fill-rule="evenodd" clip-rule="evenodd" d="M43.1935 17.8667C43.1935 14.6266 45.851 12 49.129 12C52.4071 12 55.0645 14.6266 55.0645 17.8667C55.0645 21.1067 52.4071 23.7333 49.129 23.7333C45.851 23.7333 43.1935 21.1067 43.1935 17.8667ZM15 34.7333C15 31.4933 17.6574 28.8667 20.9355 28.8667C24.2136 28.8667 26.871 31.4933 26.871 34.7333C26.871 37.9734 24.2136 40.6 20.9355 40.6C17.6574 40.6 15 37.9734 15 34.7333ZM72.129 34.7333C72.129 31.4933 74.7864 28.8667 78.0645 28.8667C81.3426 28.8667 84 31.4933 84 34.7333C84 37.9734 81.3426 40.6 78.0645 40.6C74.7864 40.6 72.129 37.9734 72.129 34.7333ZM15 67C15 63.7599 17.6574 61.1333 20.9355 61.1333C24.2136 61.1333 26.871 63.7599 26.871 67C26.871 70.2401 24.2136 72.8667 20.9355 72.8667C17.6574 72.8667 15 70.2401 15 67ZM71.3871 67C71.3871 63.7599 74.0445 61.1333 77.3226 61.1333C80.6007 61.1333 83.2581 63.7599 83.2581 67C83.2581 70.2401 80.6007 72.8667 77.3226 72.8667C74.0445 72.8667 71.3871 70.2401 71.3871 67ZM43.1935 83.1333C43.1935 79.8933 45.851 77.2667 49.129 77.2667C52.4071 77.2667 55.0645 79.8933 55.0645 83.1333C55.0645 86.3734 52.4071 89 49.129 89C45.851 89 43.1935 86.3734 43.1935 83.1333Z" fill="url(#paint1_linear_15_780)"/>
</g>
<path d="M44.7428 22.5255C44.8856 22.6571 45.0345 22.7824 45.189 22.9009L23.012 60.9722C22.7168 60.8727 22.4121 60.7938 22.0995 60.7373V40.996C25.0944 40.4544 27.371 37.8607 27.371 34.7333C27.371 34.0002 27.2459 33.2965 27.0158 32.6416L44.7428 22.5255ZM14.5 34.7333C14.5 37.8062 16.6979 40.3639 19.6156 40.9659V60.7675C16.6979 61.3695 14.5 63.9271 14.5 67C14.5 70.5217 17.3868 73.3667 20.9355 73.3667C22.8524 73.3667 24.5763 72.5365 25.7562 71.2179L43.0359 81.0787C42.814 81.723 42.6935 82.4141 42.6935 83.1333C42.6935 86.655 45.5803 89.5 49.129 89.5C52.6777 89.5 55.5645 86.655 55.5645 83.1333C55.5645 82.4141 55.4441 81.723 55.2222 81.0787L72.5019 71.218C73.6818 72.5365 75.4056 73.3667 77.3226 73.3667C80.8713 73.3667 83.7581 70.5217 83.7581 67C83.7581 63.9271 81.5602 61.3695 78.6425 60.7675V41.0746C81.9214 40.7856 84.5 38.0617 84.5 34.7333C84.5 31.2116 81.6132 28.3667 78.0645 28.3667C76.0058 28.3667 74.1699 29.3241 72.9911 30.8157L54.948 20.5898C55.3433 19.7646 55.5645 18.8416 55.5645 17.8667C55.5645 14.345 52.6777 11.5 49.129 11.5C45.5803 11.5 42.6935 14.345 42.6935 17.8667C42.6935 18.8416 42.9148 19.7646 43.31 20.5898L25.7699 30.5307C24.5896 29.2033 22.8598 28.3667 20.9355 28.3667C17.3868 28.3667 14.5 31.2116 14.5 34.7333ZM27.0158 69.0918C27.1134 68.8139 27.1921 68.5273 27.2504 68.2333H71.0077C71.066 68.5273 71.1447 68.8139 71.2423 69.0918L53.976 78.9449C52.7955 77.6092 51.0603 76.7667 49.129 76.7667C47.1978 76.7667 45.4626 77.6092 44.2821 78.9449L27.0158 69.0918ZM76.1587 40.816V60.7373C75.8461 60.7938 75.5413 60.8727 75.2461 60.9722L53.0691 22.9008C53.2236 22.7824 53.3725 22.6571 53.5153 22.5255L71.8703 32.9999C71.7131 33.5508 71.629 34.1322 71.629 34.7333C71.629 37.5968 73.5376 40.0129 76.1587 40.816ZM71.0077 65.7667H27.2504C26.9728 64.3665 26.2314 63.1321 25.192 62.2249L47.7631 24.0895C48.2035 24.1837 48.6605 24.2333 49.129 24.2333C49.5976 24.2333 50.0546 24.1837 50.495 24.0895L73.0661 62.2248C72.0267 63.1321 71.2853 64.3665 71.0077 65.7667Z" fill="url(#paint2_linear_15_780)" stroke="white"/>
<path d="M32.7552 61.7226L32.9503 61.3357L32.595 61.0876C30.1124 59.3543 28.5 56.5187 28.5 53.3188V47.0423C28.5 41.7827 32.863 37.5 38.2687 37.5H60.7313C66.137 37.5 70.5 41.7827 70.5 47.0423V53.3188C70.5 58.5784 66.137 62.8611 60.7313 62.8611H38.2687C37.5162 62.8611 36.7843 62.7781 36.0817 62.6212L35.7945 62.557L35.599 62.7769C34.1163 64.4448 31.7565 64.6633 30.0482 64.4145C29.9037 64.3935 29.7656 64.3693 29.6349 64.3427C31.1935 64.0215 32.1851 62.8534 32.7552 61.7226Z" fill="white" stroke="black"/>
<defs>
<filter id="filter0_f_15_780" x="5" y="2" width="89" height="97" filterUnits="userSpaceOnUse" color-interpolation-filters="sRGB">
<feFlood flood-opacity="0" result="BackgroundImageFix"/>
<feBlend mode="normal" in="SourceGraphic" in2="BackgroundImageFix" result="shape"/>
<feGaussianBlur stdDeviation="5" result="effect1_foregroundBlur_15_780"/>
</filter>
<linearGradient id="paint0_linear_15_780" x1="15" y1="12" x2="83.0995" y2="89.7884" gradientUnits="userSpaceOnUse">
<stop stop-color="#4772E1"/>
<stop offset="1" stop-color="#CB397F"/>
</linearGradient>
<linearGradient id="paint1_linear_15_780" x1="15" y1="12" x2="83.0995" y2="89.7884" gradientUnits="userSpaceOnUse">
<stop stop-color="#4772E1"/>
<stop offset="1" stop-color="#CB397F"/>
</linearGradient>
<linearGradient id="paint2_linear_15_780" x1="15" y1="12" x2="83.0995" y2="89.7884" gradientUnits="userSpaceOnUse">
<stop stop-color="#4772E1"/>
<stop offset="1" stop-color="#CB397F"/>
</linearGradient>
</defs>
</svg>
